<svg xmlns="http://www.w3.org/2000/svg" width="72" height="72" fill="none"><g clip-path="url(#a)"><path fill="url(#b)" d="M57.456 0H14.544C6.507 0 0 6.507 0 14.544v42.921C0 65.493 6.507 72 14.544 72h42.921c8.028 0 14.544-6.507 14.544-14.544V14.544C72 6.507 65.493 0 57.456 0z"/><path fill="#fff" d="m35.694 16.543 1.458-2.52c.9-1.575 2.907-2.107 4.482-1.207 1.575.9 2.106 2.907 1.206 4.482L28.79 41.617h10.162c3.294 0 5.139 3.87 3.708 6.552H12.87a3.265 3.265 0 0 1-3.276-3.276 3.265 3.265 0 0 1 3.276-3.276h8.352l10.692-18.531-3.34-5.796a3.284 3.284 0 0 1 1.207-4.482 3.285 3.285 0 0 1 4.482 1.206l1.43 2.529zm-12.636 35-3.15 5.464c-.9 1.575-2.907 2.105-4.482 1.206-1.575-.9-2.106-2.907-1.206-4.483l2.34-4.05c2.646-.819 4.797-.188 6.498 1.864zm27.126-9.908h8.523a3.265 3.265 0 0 1 3.276 3.276 3.265 3.265 0 0 1-3.276 3.276h-4.734l3.195 5.544a3.284 3.284 0 0 1-1.206 4.481 3.284 3.284 0 0 1-4.482-1.206c-5.382-9.333-9.423-16.316-12.105-20.97-2.745-4.734-.783-9.486 1.152-11.097 2.15 3.69 5.364 9.261 9.657 16.696z"/></g><defs><linearGradient id="b" x1="36.005" x2="36.005" y1="0" y2="72" gradientUnits="userSpaceOnUse"><stop stop-color="#18BFFB"/><stop offset="1" stop-color="#2072F3"/></linearGradient><clipPath id="a"><path fill="#fff" d="M0 0h72v72H0z"/></clipPath></defs></svg>