<svg xmlns="http://www.w3.org/2000/svg" width="96" height="96" fill="none"><path fill="url(#a)" d="M85.003 34.303c-1.735-4.229-5.254-8.794-8.01-10.237a42.393 42.393 0 0 1 4.044 12.271l.007.068C76.529 25.01 68.876 20.408 62.622 10.401a49.402 49.402 0 0 1-.941-1.548 12.815 12.815 0 0 1-.44-.835 7.42 7.42 0 0 1-.596-1.602.103.103 0 0 0-.09-.104.14.14 0 0 0-.075 0c-.005 0-.014.01-.02.011-.006.002-.02.012-.029.016l.016-.027C50.417 12.26 47.01 23.269 46.702 28.778a19.833 19.833 0 0 0-10.993 4.29c-.33-.282-.673-.546-1.03-.79a18.983 18.983 0 0 1-.113-9.886 29.624 29.624 0 0 0-9.612 7.524h-.018c-1.583-2.032-1.472-8.731-1.38-10.13-.47.19-.916.43-1.334.716a29.178 29.178 0 0 0-3.903 3.387 35.22 35.22 0 0 0-3.733 4.536v.006-.007a34.371 34.371 0 0 0-5.358 12.25l-.053.267a65.38 65.38 0 0 0-.393 2.526c0 .03-.006.058-.009.088a39.02 39.02 0 0 0-.648 5.576v.209c.018 10.12 3.78 19.866 10.547 27.314C25.438 84.1 34.715 88.71 44.67 89.568c9.957.86 19.87-2.093 27.781-8.275C80.363 75.111 85.7 66.15 87.407 56.179c.067-.522.122-1.039.181-1.566A42.085 42.085 0 0 0 85 34.296l.004.007zM38.98 65.963c.186.09.362.188.553.275l.028.018a20.813 20.813 0 0 1-.581-.293zm42.066-29.546v-.039l.007.043-.007-.004z"/><path fill="url(#b)" d="M84.995 34.301c-1.735-4.228-5.255-8.793-8.01-10.237a42.395 42.395 0 0 1 4.043 12.272v.039l.008.042a37.06 37.06 0 0 1-1.243 27.298c-4.577 9.946-15.65 20.14-32.99 19.64-18.732-.538-35.238-14.62-38.318-33.059-.562-2.908 0-4.383.282-6.746a30.504 30.504 0 0 0-.642 5.58v.21c.018 10.12 3.78 19.866 10.547 27.313 6.766 7.448 16.043 12.056 25.999 12.915 9.957.859 19.87-2.094 27.781-8.275 7.912-6.182 13.249-15.143 14.956-25.115.067-.521.122-1.038.181-1.565A42.085 42.085 0 0 0 85 34.296l-.004.005z"/><path fill="url(#c)" d="M84.995 34.301c-1.735-4.228-5.255-8.793-8.01-10.237a42.395 42.395 0 0 1 4.043 12.272v.039l.008.042a37.06 37.06 0 0 1-1.243 27.298c-4.577 9.946-15.65 20.14-32.99 19.64-18.732-.538-35.238-14.62-38.318-33.059-.562-2.908 0-4.383.282-6.746a30.504 30.504 0 0 0-.642 5.58v.21c.018 10.12 3.78 19.866 10.547 27.313 6.766 7.448 16.043 12.056 25.999 12.915 9.957.859 19.87-2.094 27.781-8.275 7.912-6.182 13.249-15.143 14.956-25.115.067-.521.122-1.038.181-1.565A42.085 42.085 0 0 0 85 34.296l-.004.005z"/><path fill="url(#d)" d="M65.586 39.048c.086.061.166.123.248.184a21.986 21.986 0 0 0-3.71-4.899C49.71 21.76 58.873 7.077 60.417 6.326l.016-.023C50.402 12.25 46.997 23.26 46.687 28.769c.466-.032.928-.072 1.404-.072a19.96 19.96 0 0 1 10.124 2.786 20.289 20.289 0 0 1 7.37 7.563v.002z"/><path fill="url(#e)" d="M48.11 41.563c-.066 1.006-3.575 4.475-4.802 4.475-11.354 0-13.199 6.957-13.199 6.957.503 5.859 4.534 10.686 9.406 13.232.223.117.448.222.674.326.39.175.782.337 1.172.486 1.673.6 3.424.941 5.196 1.015 19.906.946 23.76-24.105 9.396-31.378 3.388-.447 6.82.397 9.628 2.368a20.288 20.288 0 0 0-7.37-7.563 19.96 19.96 0 0 0-10.125-2.786c-.474 0-.937.04-1.403.072a19.832 19.832 0 0 0-10.993 4.29c.608.522 1.296 1.219 2.743 2.664 2.71 2.704 9.66 5.505 9.675 5.833l.002.009z"/><path fill="url(#f)" d="M48.11 41.563c-.066 1.006-3.575 4.475-4.802 4.475-11.354 0-13.199 6.957-13.199 6.957.503 5.859 4.534 10.686 9.406 13.232.223.117.448.222.674.326.39.175.782.337 1.172.486 1.673.6 3.424.941 5.196 1.015 19.906.946 23.76-24.105 9.396-31.378 3.388-.447 6.82.397 9.628 2.368a20.288 20.288 0 0 0-7.37-7.563 19.96 19.96 0 0 0-10.125-2.786c-.474 0-.937.04-1.403.072a19.832 19.832 0 0 0-10.993 4.29c.608.522 1.296 1.219 2.743 2.664 2.71 2.704 9.66 5.505 9.675 5.833l.002.009z"/><path fill="url(#g)" d="M33.837 31.724c.324.208.59.39.825.554a18.983 18.983 0 0 1-.113-9.885 29.621 29.621 0 0 0-9.611 7.523c.194-.005 5.987-.11 8.9 1.808z"/><path fill="url(#h)" d="M8.482 50.297C11.564 68.736 28.07 82.823 46.8 83.356c17.34.496 28.416-9.699 32.99-19.64a37.059 37.059 0 0 0 1.243-27.297v-.039c0-.03-.006-.048 0-.038l.007.067c1.417 9.368-3.287 18.439-10.643 24.585l-.023.052C56.043 72.87 42.33 68.178 39.558 66.264a20.543 20.543 0 0 1-.581-.293c-8.355-4.045-11.808-11.75-11.066-18.366a10.159 10.159 0 0 1-5.612-1.593 10.345 10.345 0 0 1-3.847-4.433 14.905 14.905 0 0 1 14.682-.597 19.653 19.653 0 0 0 14.99.597c-.015-.329-6.964-3.13-9.674-5.833-1.448-1.446-2.135-2.142-2.744-2.664a11.725 11.725 0 0 0-1.03-.791 56.068 56.068 0 0 0-.824-.554c-2.913-1.918-8.705-1.813-8.897-1.808h-.019c-1.582-2.031-1.47-8.73-1.38-10.13-.468.19-.915.43-1.334.717a29.18 29.18 0 0 0-3.902 3.386 35.198 35.198 0 0 0-3.749 4.526 34.365 34.365 0 0 0-5.357 12.25c-.02.082-1.439 6.364-.739 9.621l.007-.002z"/><path fill="url(#i)" d="M62.126 34.331a21.987 21.987 0 0 1 3.71 4.905c.219.168.424.335.598.497 9.053 8.452 4.31 20.4 3.956 21.245 7.355-6.137 12.055-15.214 10.644-24.585C76.517 24.988 68.855 20.386 62.61 10.38a49.163 49.163 0 0 1-.94-1.549 12.818 12.818 0 0 1-.44-.835 7.42 7.42 0 0 1-.596-1.601.105.105 0 0 0-.025-.07.103.103 0 0 0-.065-.035.14.14 0 0 0-.076 0c-.005 0-.013.01-.02.012l-.028.015c-1.544.742-10.705 15.434 1.71 27.998l-.005.017z"/><path fill="url(#j)" d="M66.444 39.738a8.346 8.346 0 0 0-.598-.497c-.082-.061-.162-.123-.249-.184a13.651 13.651 0 0 0-9.628-2.368c14.363 7.273 10.51 32.317-9.395 31.378a17.562 17.562 0 0 1-5.196-1.015 20.08 20.08 0 0 1-1.173-.487 14.815 14.815 0 0 1-.674-.325l.028.018c2.776 1.919 16.485 6.607 30.817-5.218l.023-.052c.357-.845 5.1-12.793-3.957-21.246l.002-.004z"/><path fill="url(#k)" d="M30.11 52.988s1.843-6.957 13.198-6.957c1.227 0 4.74-3.47 4.803-4.476a19.653 19.653 0 0 1-14.991-.596 14.905 14.905 0 0 0-14.682.596 10.346 10.346 0 0 0 3.848 4.433 10.158 10.158 0 0 0 5.61 1.594c-.739 6.612 2.713 14.316 11.066 18.365.187.091.362.19.554.276-4.877-2.552-8.903-7.377-9.406-13.232v-.003z"/><path fill="url(#l)" d="M85.001 34.303c-1.735-4.229-5.254-8.794-8.01-10.237a42.39 42.39 0 0 1 4.043 12.271l.008.068C76.527 25.01 68.874 20.408 62.62 10.401a49.2 49.2 0 0 1-.941-1.548 12.82 12.82 0 0 1-.44-.835 7.42 7.42 0 0 1-.595-1.602.105.105 0 0 0-.026-.07.103.103 0 0 0-.065-.034.14.14 0 0 0-.075 0c-.006 0-.014.01-.02.011-.006.002-.02.012-.029.016l.016-.027C50.415 12.26 47.009 23.269 46.7 28.778c.466-.032.927-.072 1.403-.072 3.559.007 7.052.968 10.125 2.786a20.288 20.288 0 0 1 7.37 7.563 13.651 13.651 0 0 0-9.628-2.368c14.363 7.273 10.51 32.317-9.395 31.378a17.565 17.565 0 0 1-5.196-1.015c-.391-.148-.782-.31-1.173-.486a14.712 14.712 0 0 1-.674-.326l.028.018a20.813 20.813 0 0 1-.581-.293c.186.09.362.188.553.275-4.876-2.552-8.903-7.377-9.406-13.232 0 0 1.844-6.957 13.199-6.957 1.227 0 4.74-3.47 4.802-4.475-.015-.329-6.965-3.13-9.675-5.833-1.447-1.446-2.134-2.142-2.743-2.664-.33-.283-.673-.547-1.03-.791a18.983 18.983 0 0 1-.113-9.886 29.622 29.622 0 0 0-9.612 7.524h-.018c-1.583-2.032-1.472-8.73-1.38-10.13-.47.19-.916.43-1.334.717a29.186 29.186 0 0 0-3.903 3.386 35.206 35.206 0 0 0-3.733 4.536 34.366 34.366 0 0 0-5.358 12.25l-.053.267c-.075.356-.412 2.163-.46 2.551a47.633 47.633 0 0 0-.59 5.638v.209c.018 10.12 3.78 19.866 10.547 27.314 6.766 7.448 16.043 12.056 25.999 12.915 9.957.859 19.87-2.094 27.781-8.276 7.912-6.181 13.249-15.142 14.956-25.114.067-.522.122-1.038.181-1.565A42.084 42.084 0 0 0 85 34.305l.002-.002z"/><defs><radialGradient id="b" cx="0" cy="0" r="1" gradientTransform="matrix(83.2498 0 0 84.315 77.144 15.696)" gradientUnits="userSpaceOnUse"><stop offset=".129" stop-color="#FFBD4F"/><stop offset=".186" stop-color="#FFAC31"/><stop offset=".247" stop-color="#FF9D17"/><stop offset=".283" stop-color="#FF980E"/><stop offset=".403" stop-color="#FF563B"/><stop offset=".467" stop-color="#FF3750"/><stop offset=".71" stop-color="#F5156C"/><stop offset=".782" stop-color="#EB0878"/><stop offset=".86" stop-color="#E50080"/></radialGradient><radialGradient id="c" cx="0" cy="0" r="1" gradientTransform="matrix(83.2498 0 0 84.315 46.234 50.131)" gradientUnits="userSpaceOnUse"><stop offset=".3" stop-color="#960E18"/><stop offset=".351" stop-color="#B11927" stop-opacity=".74"/><stop offset=".435" stop-color="#DB293D" stop-opacity=".343"/><stop offset=".497" stop-color="#F5334B" stop-opacity=".094"/><stop offset=".53" stop-color="#FF3750" stop-opacity="0"/></radialGradient><radialGradient id="d" cx="0" cy="0" r="1" gradientTransform="matrix(60.3046 0 0 61.0762 56.54 -3.089)" gradientUnits="userSpaceOnUse"><stop offset=".132" stop-color="#FFF44F"/><stop offset=".252" stop-color="#FFDC3E"/><stop offset=".506" stop-color="#FF9D12"/><stop offset=".526" stop-color="#FF980E"/></radialGradient><radialGradient id="e" cx="0" cy="0" r="1" gradientTransform="matrix(39.6364 0 0 40.1436 36.962 72.043)" gradientUnits="userSpaceOnUse"><stop offset=".353" stop-color="#3A8EE6"/><stop offset=".472" stop-color="#5C79F0"/><stop offset=".669" stop-color="#9059FF"/><stop offset="1" stop-color="#C139E6"/></radialGradient><radialGradient id="f" cx="0" cy="0" r="1" gradientTransform="matrix(20.43004 -5.0026 5.9233 24.19005 50.262 42.892)" gradientUnits="userSpaceOnUse"><stop offset=".206" stop-color="#9059FF" stop-opacity="0"/><stop offset=".278" stop-color="#8C4FF3" stop-opacity=".064"/><stop offset=".747" stop-color="#7716A8" stop-opacity=".45"/><stop offset=".975" stop-color="#6E008B" stop-opacity=".6"/></radialGradient><radialGradient id="g" cx="0" cy="0" r="1" gradientTransform="matrix(28.5192 0 0 28.8842 45.212 12.565)" gradientUnits="userSpaceOnUse"><stop stop-color="#FFE226"/><stop offset=".121" stop-color="#FFDB27"/><stop offset=".295" stop-color="#FFC82A"/><stop offset=".502" stop-color="#FFA930"/><stop offset=".732" stop-color="#FF7E37"/><stop offset=".792" stop-color="#FF7139"/></radialGradient><radialGradient id="h" cx="0" cy="0" r="1" gradientTransform="matrix(121.681 0 0 123.238 67.876 -6.219)" gradientUnits="userSpaceOnUse"><stop offset=".113" stop-color="#FFF44F"/><stop offset=".456" stop-color="#FF980E"/><stop offset=".622" stop-color="#FF5634"/><stop offset=".716" stop-color="#FF3647"/><stop offset=".904" stop-color="#E31587"/></radialGradient><radialGradient id="i" cx="0" cy="0" r="1" gradientTransform="rotate(84.052 28.54 32.353) scale(90.2979 58.5292)" gradientUnits="userSpaceOnUse"><stop stop-color="#FFF44F"/><stop offset=".06" stop-color="#FFE847"/><stop offset=".168" stop-color="#FFC830"/><stop offset=".304" stop-color="#FF980E"/><stop offset=".356" stop-color="#FF8B16"/><stop offset=".455" stop-color="#FF672A"/><stop offset=".57" stop-color="#FF3647"/><stop offset=".737" stop-color="#E31587"/></radialGradient><radialGradient id="j" cx="0" cy="0" r="1" gradientTransform="matrix(75.9552 0 0 76.927 45.22 23)" gradientUnits="userSpaceOnUse"><stop offset=".137" stop-color="#FFF44F"/><stop offset=".48" stop-color="#FF980E"/><stop offset=".592" stop-color="#FF5634"/><stop offset=".655" stop-color="#FF3647"/><stop offset=".904" stop-color="#E31587"/></radialGradient><radialGradient id="k" cx="0" cy="0" r="1" gradientTransform="matrix(83.1365 0 0 84.2002 64.78 27.172)" gradientUnits="userSpaceOnUse"><stop offset=".094" stop-color="#FFF44F"/><stop offset=".231" stop-color="#FFE141"/><stop offset=".509" stop-color="#FFAF1E"/><stop offset=".626" stop-color="#FF980E"/></radialGradient><linearGradient id="a" x1="79.718" x2="12.612" y1="19.23" y2="83.158" gradientUnits="userSpaceOnUse"><stop offset=".048" stop-color="#FFF44F"/><stop offset=".111" stop-color="#FFE847"/><stop offset=".225" stop-color="#FFC830"/><stop offset=".368" stop-color="#FF980E"/><stop offset=".401" stop-color="#FF8B16"/><stop offset=".462" stop-color="#FF672A"/><stop offset=".534" stop-color="#FF3647"/><stop offset=".705" stop-color="#E31587"/></linearGradient><linearGradient id="l" x1="78.912" x2="21.795" y1="18.886" y2="75.291" gradientUnits="userSpaceOnUse"><stop offset=".167" stop-color="#FFF44F" stop-opacity=".8"/><stop offset=".266" stop-color="#FFF44F" stop-opacity=".634"/><stop offset=".489" stop-color="#FFF44F" stop-opacity=".217"/><stop offset=".6" stop-color="#FFF44F" stop-opacity="0"/></linearGradient></defs></svg>