<svg xmlns="http://www.w3.org/2000/svg" width="80" height="80" fill="none"><path fill="#EA4335" d="M37.525 38.235 4.445 72.891a8.972 8.972 0 0 0 13.138 5.324l37.22-21.198-17.278-18.782z"/><path fill="#FBBC04" d="m70.979 32.343-16.096-9.219-18.117 15.898 18.19 17.944 15.973-9.12a8.75 8.75 0 0 0 0-15.503h.05z"/><path fill="#4285F4" d="M4.452 7.128c-.2.74-.3 1.502-.296 2.268v61.226c.002.766.102 1.528.296 2.268l34.213-33.77L4.452 7.128z"/><path fill="#34A853" d="m37.771 40.009 17.106-16.884-37.17-21.297a9.17 9.17 0 0 0-4.61-1.257 8.973 8.973 0 0 0-8.652 6.532L37.771 40.01z"/></svg>