<svg xmlns="http://www.w3.org/2000/svg" width="96" height="96" fill="none"><path fill="#000" fill-rule="evenodd" d="M46.089 11.077a8.792 8.792 0 0 1 7.934 5.016l11.623 24.452s0 .012-.012.012c0 0 0-.012.012-.012 2.725-3.34 4.702-7.27 5.546-11.49.953-4.763 5.583-7.838 10.345-6.897a8.79 8.79 0 0 1 6.897 10.345c-1.953 9.754-7.403 18.471-14.782 24.874l4.22 8.874c2.339 4.92-.109 10.936-5.293 12.479l-.157.048a8.69 8.69 0 0 1-2.34.326 8.8 8.8 0 0 1-7.945-5.016l-3.75-7.885-7.632-16.06-3.75-7.886a1.002 1.002 0 0 0-1.808 0l-3.834 8.054c-5.848-1.242-11.732-4.859-15.06-9.26l11.852-24.934a8.747 8.747 0 0 1 7.934-5.04zM12.871 32.756a8.785 8.785 0 0 1 11.443 4.859c.47 1.17 1.145 2.315 1.977 3.412l.012.012.398.507c.036.048.072.084.109.132l.108.133c.06.06.109.133.169.193.012.012.024.024.024.036l-.024-.036c.229.277.482.542.735.808.012.012.012.024.024.024.832.868 1.76 1.688 2.762 2.447.47.362.952.7 1.446 1.037.049.024.085.06.133.085 2.785 1.832 5.98 3.207 9.164 3.882 1.35.29 2.7.446 4.015.458h.168a22.39 22.39 0 0 0 5.21-.627l7.631 16.06c-4.123 1.387-8.452 2.147-12.84 2.147-3.955 0-7.958-.688-11.84-1.93l-3.654 7.68a8.785 8.785 0 0 1-12.07 3.98c-4.195-2.23-5.726-7.488-3.689-11.78l4.003-8.416c-4.521-3.822-8.126-8.464-10.212-13.504l-.06-.157c-1.81-4.497.361-9.621 4.858-11.442z" clip-rule="evenodd"/><path fill="#fff" fill-rule="evenodd" d="M46.089 11.077a8.792 8.792 0 0 1 7.934 5.016l11.623 24.452s0 .012-.012.012c0 0 0-.012.012-.012 2.725-3.34 4.702-7.27 5.546-11.49.953-4.763 5.583-7.838 10.345-6.897a8.79 8.79 0 0 1 6.897 10.345c-1.953 9.754-7.403 18.471-14.782 24.874l4.22 8.874c2.339 4.92-.109 10.936-5.293 12.479l-.157.048a8.69 8.69 0 0 1-2.34.326 8.8 8.8 0 0 1-7.945-5.016l-3.75-7.885-7.632-16.06-3.75-7.886a1.002 1.002 0 0 0-1.808 0l-3.834 8.054c-5.848-1.242-11.732-4.859-15.06-9.26l11.852-24.934a8.747 8.747 0 0 1 7.934-5.04zM12.871 32.756a8.785 8.785 0 0 1 11.443 4.859c.47 1.17 1.145 2.315 1.977 3.412l.012.012.398.507c.036.048.072.084.109.132l.108.133c.06.06.109.133.169.193.012.012.024.024.024.036l-.024-.036c.229.277.482.542.735.808.012.012.012.024.024.024.832.868 1.76 1.688 2.762 2.447.47.362.952.7 1.446 1.037.049.024.085.06.133.085 2.785 1.832 5.98 3.207 9.164 3.882 1.35.29 2.7.446 4.015.458h.168a22.39 22.39 0 0 0 5.21-.627l7.631 16.06c-4.123 1.387-8.452 2.147-12.84 2.147-3.955 0-7.958-.688-11.84-1.93l-3.654 7.68a8.785 8.785 0 0 1-12.07 3.98c-4.195-2.23-5.726-7.488-3.689-11.78l4.003-8.416c-4.521-3.822-8.126-8.464-10.212-13.504l-.06-.157c-1.81-4.497.361-9.621 4.858-11.442z" clip-rule="evenodd"/><path stroke="#fff" stroke-linejoin="round" stroke-width="9.326" d="M65.646 40.545 54.023 16.093a8.792 8.792 0 0 0-7.934-5.016 8.747 8.747 0 0 0-7.934 5.04L26.303 41.051c3.328 4.401 9.212 8.018 15.06 9.26l3.834-8.054a1.001 1.001 0 0 1 1.808 0l3.75 7.885m14.89-9.597s0 .012-.011.012c0 0 0-.012.012-.012zm0 0c2.726-3.34 4.703-7.27 5.547-11.49.953-4.763 5.583-7.838 10.345-6.897a8.79 8.79 0 0 1 6.897 10.345c-1.953 9.754-7.403 18.471-14.782 24.874l4.22 8.874c2.339 4.92-.109 10.936-5.293 12.479l-.157.048a8.69 8.69 0 0 1-2.34.326 8.8 8.8 0 0 1-7.945-5.016l-3.75-7.885-7.632-16.06m0 0h.024m-23.692-8.14c-.06-.06-.109-.132-.169-.192l-.108-.133c-.037-.048-.073-.084-.109-.132l-.398-.507-.012-.012c-.832-1.097-1.507-2.242-1.977-3.412a8.785 8.785 0 0 0-11.443-4.86c-4.497 1.822-6.667 6.946-4.859 11.443l.06.157c2.087 5.04 5.692 9.682 10.213 13.504l-4.003 8.416c-2.037 4.292-.506 9.55 3.69 11.78a8.787 8.787 0 0 0 12.069-3.98l3.653-7.68c3.883 1.242 7.886 1.93 11.84 1.93 4.39 0 8.718-.76 12.841-2.147l-7.632-16.06c-1.712.41-3.46.627-5.209.627h-.168a20.104 20.104 0 0 1-4.015-.458c-3.184-.675-6.379-2.05-9.164-3.882-.048-.025-.084-.06-.133-.085a31.288 31.288 0 0 1-1.446-1.037 23.653 23.653 0 0 1-2.762-2.447c-.012 0-.012-.012-.024-.024-.253-.266-.506-.53-.735-.808zm0 0c.012.013.024.025.024.037l-.024-.036z"/><path fill="#1A007F" fill-rule="evenodd" d="m33.69 66.394 7.657-16.109c-5.848-1.242-11.732-4.859-15.06-9.26l-8.006 16.832c4.45 3.774 9.79 6.74 15.41 8.537z" clip-rule="evenodd"/><path fill="#4E000A" fill-rule="evenodd" d="M65.653 40.545c-3.847 4.714-9.188 8.21-14.903 9.573l7.632 16.06c5.57-1.88 10.78-4.919 15.277-8.813l-8.006-16.82z" clip-rule="evenodd"/><path fill="#1A007F" fill-rule="evenodd" d="m18.288 57.858-4.003 8.416c-2.037 4.28-.506 9.55 3.69 11.78 4.449 2.363 9.923.519 12.07-3.979l3.652-7.68a45.68 45.68 0 0 1-15.409-8.537z" clip-rule="evenodd"/><path fill="#FF9396" fill-rule="evenodd" d="M81.54 22.17a8.79 8.79 0 0 0-10.345 6.897c-.844 4.22-2.822 8.15-5.547 11.49l7.994 16.832c7.38-6.402 12.83-15.12 14.782-24.874.953-4.774-2.134-9.405-6.884-10.345z" clip-rule="evenodd"/><path fill="#002DC8" fill-rule="evenodd" d="M50.743 50.118c-1.712.41-3.46.627-5.209.627a20.11 20.11 0 0 1-4.183-.458c-5.848-1.242-11.732-4.86-15.06-9.26-.832-1.097-1.507-2.243-1.977-3.412-1.82-4.498-6.945-6.668-11.443-4.86-4.497 1.821-6.667 6.946-4.859 11.443 2.062 5.112 5.704 9.802 10.273 13.66a45.623 45.623 0 0 0 15.397 8.537c3.87 1.242 7.886 1.93 11.84 1.93 4.39 0 8.718-.76 12.841-2.147l-7.62-16.06z" clip-rule="evenodd"/><path fill="#FF536A" fill-rule="evenodd" d="m77.861 66.239-4.22-8.874-7.994-16.82-.012.012s0-.012.012-.012L54.024 16.093a8.792 8.792 0 0 0-7.934-5.016 8.792 8.792 0 0 0-7.933 5.016L26.305 41.027c3.328 4.401 9.211 8.018 15.06 9.26l3.833-8.054a1.003 1.003 0 0 1 1.809 0l3.75 7.885 7.632 16.06 3.75 7.886a8.777 8.777 0 0 0 7.945 5.016 8.62 8.62 0 0 0 2.34-.326c5.292-1.459 7.8-7.548 5.437-12.515z" clip-rule="evenodd"/><path fill="#1A007F" fill-rule="evenodd" d="m33.69 66.394 7.657-16.109c-5.848-1.242-11.732-4.859-15.06-9.26l-8.006 16.832c4.45 3.774 9.79 6.74 15.41 8.537z" clip-rule="evenodd"/><path fill="#4E000A" fill-rule="evenodd" d="M65.653 40.545c-3.847 4.714-9.188 8.21-14.903 9.573l7.632 16.06c5.57-1.88 10.78-4.919 15.277-8.813l-8.006-16.82z" clip-rule="evenodd"/><path fill="#1A007F" fill-rule="evenodd" d="m18.288 57.858-4.003 8.416c-2.037 4.28-.506 9.55 3.69 11.78 4.449 2.363 9.923.519 12.07-3.979l3.652-7.68a45.68 45.68 0 0 1-15.409-8.537z" clip-rule="evenodd"/><path fill="#FF9396" fill-rule="evenodd" d="M81.532 22.17a8.79 8.79 0 0 0-10.345 6.897c-.844 4.22-2.822 8.15-5.546 11.49l7.993 16.832c7.38-6.402 12.83-15.12 14.783-24.874.952-4.774-2.135-9.404-6.885-10.345z" clip-rule="evenodd"/><path fill="#002DC8" fill-rule="evenodd" d="M50.743 50.119c-1.712.41-3.46.627-5.209.627-1.362 0-2.773-.157-4.184-.458-5.847-1.242-11.731-4.86-15.059-9.26-.832-1.097-1.507-2.243-1.977-3.412-1.82-4.498-6.945-6.668-11.443-4.86-4.497 1.821-6.667 6.946-4.859 11.443 2.062 5.112 5.704 9.802 10.273 13.66a45.623 45.623 0 0 0 15.397 8.537c3.87 1.242 7.886 1.93 11.84 1.93 4.39 0 8.718-.76 12.841-2.147l-7.62-16.06z" clip-rule="evenodd"/><path fill="#FF536A" fill-rule="evenodd" d="m77.869 66.239-4.22-8.874-7.994-16.82-.012.012s0-.012.012-.012L54.032 16.093a8.792 8.792 0 0 0-7.934-5.016 8.792 8.792 0 0 0-7.933 5.016L26.313 41.027c3.327 4.401 9.211 8.018 15.059 9.26l3.834-8.054a1.003 1.003 0 0 1 1.809 0l3.75 7.885 7.632 16.06 3.75 7.886a8.777 8.777 0 0 0 7.945 5.016 8.62 8.62 0 0 0 2.34-.326c5.292-1.459 7.8-7.548 5.437-12.515z" clip-rule="evenodd"/></svg>