<svg xmlns="http://www.w3.org/2000/svg" width="72" height="85" fill="none"><path fill="url(#a)" d="m72 27.39-2.587-7.092 1.829-4.06c.223-.535.133-1.16-.268-1.561L66.067 9.68a7.944 7.944 0 0 0-8.297-1.918l-1.383.49L48.847.09 36.09 0H36L23.152.09l-7.539 8.207-1.338-.49c-2.944-1.026-6.2-.268-8.342 1.963L.937 14.855c-.312.312-.402.803-.223 1.25l1.873 4.237L0 27.435l1.695 6.38L9.323 62.9c.893 3.346 2.9 6.29 5.71 8.298 0 0 9.28 6.557 18.424 12.49a4.03 4.03 0 0 0 5.086 0 602.54 602.54 0 0 0 18.424-12.535c2.81-2.007 4.862-4.952 5.71-8.297l7.628-29.086L72 27.39z"/><path fill="#fff" d="M38.044 52.462a8.724 8.724 0 0 0-1.517-.535h-.892a8.724 8.724 0 0 0-1.517.535l-2.275.937a65.85 65.85 0 0 0-2.587 1.204l-4.194 2.186a.837.837 0 0 0-.535 1.026c.09.223.223.357.401.491l3.659 2.587c.624.447 1.65 1.25 2.23 1.785l1.026.892c.58.49 1.561 1.338 2.141 1.874l.982.847a1.628 1.628 0 0 0 2.14 0l1.027-.892 2.141-1.874 1.026-.892c.58-.535 1.606-1.294 2.23-1.784l3.659-2.588a.765.765 0 0 0 .357-1.07c-.09-.179-.268-.357-.491-.402l-4.193-2.141a67.157 67.157 0 0 0-2.588-1.205l-2.23-.98z"/><path fill="#fff" d="m63.882 28.998.133-.402c0-.49-.044-1.026-.089-1.516a13.829 13.829 0 0 0-1.338-2.543l-2.364-3.48a30.142 30.142 0 0 0-1.696-2.275l-3.167-3.97c-.268-.401-.624-.758-.937-1.115h-.044s-.625.134-1.428.267l-4.862.937-2.142.402c-.713.044-1.427-.09-2.096-.313l-3.837-1.249c-.758-.223-1.962-.58-2.72-.758a10.79 10.79 0 0 0-2.41 0c-.758.178-2.007.535-2.72.758l-3.837 1.25c-.67.222-1.383.356-2.097.312L24.09 14.9l-4.863-.937c-.758-.133-1.383-.267-1.427-.267h-.045a7.348 7.348 0 0 0-.937 1.115l-3.167 3.97c-.49.58-1.249 1.65-1.695 2.275l-2.364 3.48c-.402.58-.803 1.204-1.116 1.874a7.4 7.4 0 0 0-.312 2.185l.134.402c.044.223.134.49.223.714a80.31 80.31 0 0 0 1.873 2.141l8.298 8.833c.58.669.714 1.561.401 2.364l-1.338 3.212a4.093 4.093 0 0 0-.044 2.632l.267.758a6.963 6.963 0 0 0 2.23 3.078l1.294 1.071c.67.49 1.562.625 2.365.268l4.64-2.23c.847-.447 1.65-.938 2.363-1.562l3.703-3.346c.624-.535.67-1.472.09-2.096l-.045-.045-8.387-5.62a1.552 1.552 0 0 1-.49-2.053l3.256-6.112c.357-.758.446-1.605.178-2.409a3.654 3.654 0 0 0-1.829-1.65l-10.17-3.837c-.714-.267-.714-.58.088-.624l5.978-.58c.937-.045 1.874.045 2.81.268l5.22 1.472a1.587 1.587 0 0 1 1.115 1.784l-2.052 11.153a5.302 5.302 0 0 0-.09 1.873c.09.268.804.58 1.562.803l3.168.67a7.208 7.208 0 0 0 2.765 0l2.855-.625c.759-.178 1.472-.535 1.562-.803a5.308 5.308 0 0 0-.09-1.874l-2.052-11.152a1.587 1.587 0 0 1 1.116-1.785l5.219-1.472a9.867 9.867 0 0 1 2.81-.267l5.978.535c.803.09.803.357.09.624l-10.172 3.837c-.803.312-1.427.937-1.829 1.65-.267.803-.223 1.651.179 2.41l3.256 6.111c.357.714.134 1.606-.49 2.052l-8.387 5.666c-.58.58-.535 1.516.045 2.096l.044.045 3.703 3.346c.714.624 1.516 1.16 2.364 1.56l4.64 2.187c.802.312 1.695.223 2.364-.312l1.293-1.071c.982-.803 1.785-1.874 2.23-3.123l.269-.758c.267-.848.223-1.785-.045-2.632l-1.383-3.212c-.312-.803-.134-1.695.402-2.364l8.297-8.833a80.556 80.556 0 0 0 1.873-2.142c-.133-.178-.044-.401 0-.624z"/><defs><linearGradient id="a" x1="-.079" x2="72.007" y1="42.322" y2="42.322" gradientUnits="userSpaceOnUse"><stop stop-color="#EA572F"/><stop offset=".3" stop-color="#EA5430"/><stop offset=".41" stop-color="#E94E2E"/><stop offset=".49" stop-color="#E8432E"/><stop offset=".5" stop-color="#E8412D"/><stop offset=".56" stop-color="#E73E28"/><stop offset=".67" stop-color="#E13C24"/><stop offset="1" stop-color="#DF3C24"/></linearGradient></defs></svg>