<svg xmlns="http://www.w3.org/2000/svg" width="96" height="96" fill="none"><g clip-path="url(#a)"><path fill="url(#b)" d="M47.993 27.691h35.168a40.605 40.605 0 0 0-70.339.005l17.585 30.457.015-.004A20.283 20.283 0 0 1 47.993 27.69z"/><path fill="url(#c)" d="M65.59 58.15 48.004 88.606A40.604 40.604 0 0 0 83.17 27.69H48.002l-.004.015A20.282 20.282 0 0 1 65.589 58.15z"/><path fill="url(#d)" d="M30.402 58.16 12.818 27.703a40.605 40.605 0 0 0 35.174 60.913l17.584-30.457-.011-.011a20.283 20.283 0 0 1-35.163.012z"/><path fill="#fff" d="M47.995 68.307c11.216 0 20.308-9.092 20.308-20.308S59.21 27.691 47.995 27.691s-20.307 9.092-20.307 20.308 9.092 20.308 20.307 20.308z"/><path fill="#1A73E8" d="M48.007 64.078c8.879 0 16.077-7.198 16.077-16.077 0-8.88-7.198-16.077-16.077-16.077-8.88 0-16.077 7.198-16.077 16.077 0 8.879 7.198 16.077 16.077 16.077z"/></g><defs><linearGradient id="b" x1="78.774" x2="43.605" y1="25.157" y2="86.072" gradientUnits="userSpaceOnUse"><stop stop-color="#D93025"/><stop offset="1" stop-color="#EA4335"/></linearGradient><linearGradient id="c" x1="85.476" x2="15.137" y1="32.768" y2="32.768" gradientUnits="userSpaceOnUse"><stop stop-color="#FCC934"/><stop offset="1" stop-color="#FBBC04"/></linearGradient><linearGradient id="d" x1="52.384" x2="17.215" y1="86.08" y2="25.165" gradientUnits="userSpaceOnUse"><stop stop-color="#1E8E3E"/><stop offset="1" stop-color="#34A853"/></linearGradient><clipPath id="a"><path fill="#fff" d="M0 0h96v96H0z"/></clipPath></defs></svg>