<svg xmlns="http://www.w3.org/2000/svg" width="64" height="64" fill="none"><g clip-path="url(#a)"><g filter="url(#b)" opacity=".53"><path fill="#000" d="M61.19 32.835c0 3.691-.755 7.346-2.222 10.756a28.062 28.062 0 0 1-6.328 9.118 29.287 29.287 0 0 1-9.469 6.093 30.169 30.169 0 0 1-11.17 2.14c-3.833 0-7.629-.727-11.17-2.14a29.288 29.288 0 0 1-9.47-6.093 28.062 28.062 0 0 1-6.327-9.118 27.205 27.205 0 0 1-2.221-10.756c0-7.454 3.075-14.603 8.549-19.874 5.474-5.271 12.898-8.232 20.64-8.232 3.832 0 7.628.727 11.17 2.139a29.289 29.289 0 0 1 9.469 6.093 28.062 28.062 0 0 1 6.327 9.118 27.204 27.204 0 0 1 2.222 10.756z"/></g><path fill="url(#c)" stroke="#CDCDCD" stroke-linecap="round" stroke-linejoin="round" stroke-width=".09" d="M62.303 30.354a30.3 30.3 0 1 1-60.599 0 30.3 30.3 0 0 1 60.599 0z"/><path fill="url(#d)" d="M59.93 30.354a27.925 27.925 0 1 1-55.85 0 27.925 27.925 0 0 1 55.85 0z"/><path fill="#F4F2F3" d="M31.998 3.885a.406.406 0 0 0-.407.407v4.696a.406.406 0 1 0 .815 0V4.292a.406.406 0 0 0-.408-.407zm-2.663.168a.406.406 0 0 0-.446.448l.206 1.964a.406.406 0 1 0 .81-.084l-.206-1.965a.406.406 0 0 0-.364-.363zm5.346.002a.406.406 0 0 0-.365.363l-.207 1.964a.406.406 0 1 0 .81.086l.207-1.965a.406.406 0 0 0-.445-.448zm-8.082.395a.406.406 0 0 0-.396.491l.972 4.595a.406.406 0 1 0 .797-.169l-.973-4.594a.406.406 0 0 0-.4-.323zm10.817.004a.406.406 0 0 0-.4.322L36.04 9.37a.406.406 0 1 0 .796.17l.976-4.594a.406.406 0 0 0-.396-.492zm-13.428.732a.406.406 0 0 0-.422.532l.61 1.879a.406.406 0 1 0 .774-.252l-.61-1.879a.406.406 0 0 0-.352-.28zm16.025.001a.406.406 0 0 0-.352.28l-.611 1.879a.406.406 0 1 0 .774.252l.611-1.88a.406.406 0 0 0-.422-.53zm-18.608.944a.406.406 0 0 0-.365.573l1.908 4.291a.406.406 0 1 0 .744-.33l-1.907-4.292a.406.406 0 0 0-.38-.242zm21.22.014a.407.407 0 0 0-.38.242l-1.914 4.289a.406.406 0 1 0 .744.332l1.913-4.29a.406.406 0 0 0-.364-.573zM19.008 7.4a.406.406 0 0 0-.38.61l.986 1.711a.406.406 0 1 0 .706-.407l-.988-1.71a.406.406 0 0 0-.324-.204zm25.98 0a.405.405 0 0 0-.325.203l-.988 1.71a.406.406 0 1 0 .706.408l.987-1.71a.406.406 0 0 0-.38-.61zM16.68 8.851a.408.408 0 0 0-.316.646l2.758 3.801a.406.406 0 1 0 .66-.478l-2.759-3.8a.406.406 0 0 0-.343-.168zm30.664.02A.405.405 0 0 0 47 9.04l-2.763 3.798a.406.406 0 1 0 .659.479l2.763-3.798a.406.406 0 0 0-.315-.647zM14.6 10.595a.406.406 0 0 0-.324.68l1.322 1.468c.15.168.407.181.575.03a.406.406 0 0 0 .03-.575l-1.322-1.468a.406.406 0 0 0-.281-.135zm34.798.003a.408.408 0 0 0-.282.135L47.797 12.2a.406.406 0 1 0 .605.545l1.322-1.468a.407.407 0 0 0-.324-.68zm-36.792 1.913a.407.407 0 0 0-.251.71l3.49 3.141a.406.406 0 1 0 .545-.605l-3.49-3.142a.406.406 0 0 0-.294-.104zm38.795.013a.405.405 0 0 0-.294.105l-3.492 3.14a.406.406 0 1 0 .544.605l3.493-3.14a.406.406 0 0 0-.25-.71zM10.95 14.643a.406.406 0 0 0-.253.737l1.598 1.16a.406.406 0 1 0 .479-.659l-1.599-1.16a.407.407 0 0 0-.225-.078zm42.11.014a.408.408 0 0 0-.225.078l-1.6 1.16a.406.406 0 1 0 .479.66l1.599-1.16a.406.406 0 0 0-.253-.738zM9.4 16.917a.406.406 0 0 0-.175.76l4.067 2.347a.406.406 0 1 0 .407-.705L9.633 16.97a.407.407 0 0 0-.233-.054zm45.198 0a.403.403 0 0 0-.232.054l-4.067 2.348a.406.406 0 1 0 .407.705l4.068-2.348a.406.406 0 0 0-.176-.76zM8.227 19.34a.406.406 0 0 0-.174.78l1.805.804a.406.406 0 1 0 .332-.744l-1.804-.805a.407.407 0 0 0-.158-.035zm47.55.017a.408.408 0 0 0-.158.035l-1.805.803a.406.406 0 1 0 .331.744l1.805-.803a.406.406 0 0 0-.173-.78zM7.184 21.873a.406.406 0 0 0-.091.793l4.465 1.455a.406.406 0 1 0 .252-.774l-4.465-1.455a.408.408 0 0 0-.161-.019zm49.635.018a.395.395 0 0 0-.16.018l-4.467 1.452a.406.406 0 1 0 .252.775l4.466-1.452a.406.406 0 0 0-.091-.793zM6.533 24.534a.406.406 0 0 0-.087.806l1.932.41a.406.406 0 1 0 .17-.796l-1.933-.411a.394.394 0 0 0-.082-.01zm50.931.004a.502.502 0 0 0-.082.008l-1.932.41a.406.406 0 1 0 .17.796l1.931-.41a.406.406 0 0 0-.087-.804zm-51.423 2.67a.406.406 0 0 0-.003.811l4.67.494a.406.406 0 1 0 .086-.81l-4.67-.494a.423.423 0 0 0-.083 0zm51.92.036a.37.37 0 0 0-.084 0l-4.67.488a.406.406 0 1 0 .084.81l4.67-.488a.406.406 0 0 0 0-.81zm-52 2.703a.406.406 0 1 0 0 .815h1.976a.406.406 0 1 0 0-.815H5.962zm50.098 0a.406.406 0 1 0 0 .815h1.976a.406.406 0 1 0 0-.815h-1.976zm-45.27 2.22a.368.368 0 0 0-.083 0l-4.671.487a.406.406 0 1 0 .084.81l4.671-.487a.406.406 0 0 0-.002-.81zm42.417.029a.406.406 0 0 0-.003.81l4.67.494a.406.406 0 1 0 .086-.81l-4.67-.494a.416.416 0 0 0-.083 0zM8.46 34.946a.414.414 0 0 0-.082.009l-1.933.41a.406.406 0 1 0 .17.797l1.932-.41a.406.406 0 0 0-.087-.806zm47.076.004a.406.406 0 0 0-.087.806l1.932.41a.406.406 0 1 0 .17-.797l-1.933-.41a.401.401 0 0 0-.082-.01zm-43.822 1.603a.395.395 0 0 0-.16.02l-4.467 1.451a.406.406 0 1 0 .252.774l4.466-1.451a.406.406 0 0 0-.091-.794zm40.564.015a.406.406 0 0 0-.091.793l4.465 1.455a.406.406 0 1 0 .252-.774l-4.465-1.455a.408.408 0 0 0-.16-.02zM10.01 39.733a.405.405 0 0 0-.158.036l-1.805.803a.406.406 0 1 0 .331.744l1.805-.803a.406.406 0 0 0-.173-.78zm43.97.016a.406.406 0 0 0-.174.78l1.805.804a.406.406 0 1 0 .332-.744l-1.804-.805a.407.407 0 0 0-.159-.035zm-40.456.882a.403.403 0 0 0-.233.054l-4.067 2.348a.406.406 0 1 0 .408.705l4.066-2.348a.406.406 0 0 0-.175-.759zm36.95 0a.406.406 0 0 0-.175.76l4.066 2.347a.406.406 0 1 0 .407-.705l-4.067-2.348a.406.406 0 0 0-.232-.054zm-37.965 3.446a.408.408 0 0 0-.225.078l-1.599 1.16a.406.406 0 1 0 .478.659l1.6-1.16a.406.406 0 0 0-.254-.737zm38.969.014a.406.406 0 0 0-.253.737l1.598 1.16a.406.406 0 1 0 .478-.658l-1.598-1.161a.407.407 0 0 0-.225-.078zm-35.348.14a.405.405 0 0 0-.293.104l-3.493 3.14a.406.406 0 1 0 .544.605l3.493-3.14a.406.406 0 0 0-.25-.709zm31.727.011a.408.408 0 0 0-.251.71l3.49 3.142a.406.406 0 1 0 .545-.605l-3.49-3.142a.406.406 0 0 0-.294-.105zm-28.413 2.983a.405.405 0 0 0-.344.168l-2.763 3.797a.406.406 0 1 0 .659.48l2.762-3.798a.406.406 0 0 0-.314-.647zm25.086.017a.407.407 0 0 0-.315.646l2.757 3.802a.406.406 0 1 0 .66-.478l-2.758-3.802a.406.406 0 0 0-.344-.168zm-28.653.587a.408.408 0 0 0-.281.134l-1.322 1.468a.406.406 0 1 0 .605.545l1.322-1.468a.406.406 0 0 0-.324-.68zm32.24.002a.406.406 0 0 0-.324.68l1.322 1.467c.15.168.407.181.575.03a.406.406 0 0 0 .03-.575l-1.322-1.468a.405.405 0 0 0-.281-.135zm-24.815 1.628a.405.405 0 0 0-.38.241l-1.913 4.29a.406.406 0 1 0 .743.33l1.914-4.288a.406.406 0 0 0-.364-.573zm17.367.012a.407.407 0 0 0-.364.572l1.907 4.292a.406.406 0 1 0 .744-.33l-1.907-4.292a.406.406 0 0 0-.38-.242zm-20.73 1.314a.405.405 0 0 0-.324.203l-.987 1.71a.406.406 0 1 0 .705.408l.988-1.71a.406.406 0 0 0-.382-.611zm24.118 0a.406.406 0 0 0-.381.61l.988 1.71a.406.406 0 1 0 .705-.406l-.987-1.711a.407.407 0 0 0-.325-.203zm-16.496.061a.406.406 0 0 0-.4.323l-.977 4.594a.406.406 0 1 0 .797.169l.976-4.594a.406.406 0 0 0-.396-.492zm8.86.003a.406.406 0 0 0-.396.491l.973 4.595a.406.406 0 1 0 .796-.169l-.972-4.594a.406.406 0 0 0-.4-.323zm-4.423.464a.406.406 0 0 0-.407.407v4.696a.406.406 0 1 0 .815 0V51.72a.406.406 0 0 0-.408-.407zm-7.473 1.517a.407.407 0 0 0-.353.28l-.61 1.879a.406.406 0 1 0 .774.252l.61-1.88a.406.406 0 0 0-.421-.531zm14.944.001a.406.406 0 0 0-.422.532l.61 1.879a.406.406 0 1 0 .775-.252l-.611-1.879a.406.406 0 0 0-.352-.28zm-10.026 1.046a.406.406 0 0 0-.365.363l-.207 1.965a.406.406 0 1 0 .81.085l.207-1.965a.406.406 0 0 0-.445-.448zm5.095.002a.406.406 0 0 0-.445.448l.204 1.965a.406.406 0 1 0 .81-.085l-.205-1.965a.406.406 0 0 0-.364-.363z"/><g filter="url(#e)" opacity=".409"><path fill="#000" d="M51.078 14.068 28.803 27.01 14.719 49.182l20.604-15.26 15.755-19.854z"/></g><path fill="#FF5150" d="m35.19 33.697-6.385-6.686 22.65-15.237L35.19 33.697z"/><path fill="#F1F1F1" d="m35.189 33.697-6.385-6.686-16.265 21.922 22.65-15.236z"/><path fill="#000" d="m12.54 48.933 22.649-15.236 16.264-21.923-38.914 37.16z" opacity=".243"/></g><defs><filter id="b" width="62.958" height="60.796" x=".521" y="2.437" color-interpolation-filters="sRGB" filterUnits="userSpaceOnUse"><feFlood flood-opacity="0" result="BackgroundImageFix"/><feBlend in="SourceGraphic" in2="BackgroundImageFix" result="shape"/><feGaussianBlur result="effect1_foregroundBlur_1453_23147" stdDeviation="1.146"/></filter><filter id="e" width="37.662" height="36.417" x="14.068" y="13.417" color-interpolation-filters="sRGB" filterUnits="userSpaceOnUse"><feFlood flood-opacity="0" result="BackgroundImageFix"/><feBlend in="SourceGraphic" in2="BackgroundImageFix" result="shape"/><feGaussianBlur result="effect1_foregroundBlur_1453_23147" stdDeviation=".326"/></filter><radialGradient id="d" cx="0" cy="0" r="1" gradientTransform="matrix(30.2997 0 0 30.2994 32.13 26.282)" gradientUnits="userSpaceOnUse"><stop stop-color="#06C2E7"/><stop offset=".25" stop-color="#0DB8EC"/><stop offset=".5" stop-color="#12AEF1"/><stop offset=".75" stop-color="#1F86F9"/><stop offset="1" stop-color="#107DDD"/></radialGradient><linearGradient id="c" x1="32.002" x2="32.002" y1="60.653" y2=".055" gradientUnits="userSpaceOnUse"><stop stop-color="#BDBDBD"/><stop offset="1" stop-color="#fff"/></linearGradient><clipPath id="a"><path fill="#fff" d="M0 0h64v63.649H0z"/></clipPath></defs></svg>